<svg xmlns="http://www.w3.org/2000/svg" viewBox="0 0 128 128">
  <defs>
    <linearGradient id="bg" x1="0" y1="0" x2="1" y2="1">
      <stop offset="0%" stop-color="#06b6d4" />
      <stop offset="100%" stop-color="#4f46e5" />
    </linearGradient>
  </defs>
  <rect x="8" y="8" width="112" height="112" rx="28" fill="url(#bg)" />
  <path
    d="M32 42.5a8.5 8.5 0 0 1 8.5-8.5h47a8.5 8.5 0 0 1 8.5 8.5v43a8.5 8.5 0 0 1-8.5 8.5h-47a8.5 8.5 0 0 1-8.5-8.5v-43Zm7.5-.8 24 18.2a1 1 0 0 0 1 0l24-18.2h-49Zm49 8.5-22.3 16.9a4 4 0 0 1-4.8 0L39 50.2v35.3a1 1 0 0 0 1 1h48a1 1 0 0 0 1-1V50.2Z"
    fill="#fff"
  />
</svg>
